<?xml version="1.0" encoding="UTF-8" standalone="no"?><!-- Generator: Gravit.io --><svg xmlns="http://www.w3.org/2000/svg" xmlns:xlink="http://www.w3.org/1999/xlink" style="isolation:isolate" viewBox="0 0 1131 812.206" width="1131pt" height="812.206pt"><defs><clipPath id="_clipPath_nvMjCEYFEyTLc2S7ih9RKHkBkTXP03oU"><rect width="1131" height="812.206"/></clipPath></defs><g clip-path="url(#_clipPath_nvMjCEYFEyTLc2S7ih9RKHkBkTXP03oU)"><clipPath id="_clipPath_RSoQ1JyZImrCk5WQkxz3cYweO0V0xKE9"><rect x="0" y="0" width="1131" height="812.206" transform="matrix(1,0,0,1,0,0)" fill="rgb(255,255,255)"/></clipPath><g clip-path="url(#_clipPath_RSoQ1JyZImrCk5WQkxz3cYweO0V0xKE9)"><g><g style="opacity:0.3;"><rect x="689.328" y="51.267" width="80.802" height="30.092" transform="matrix(1,0,0,1,0,0)" fill="rgb(75,178,249)"/></g><g style="opacity:0.3;"><rect x="823.626" y="0" width="80.802" height="30.092" transform="matrix(1,0,0,1,0,0)" fill="rgb(75,178,249)"/></g><g style="opacity:0.3;"><rect x="829.198" y="93.061" width="80.802" height="30.092" transform="matrix(1,0,0,1,0,0)" fill="rgb(75,178,249)"/></g><g style="opacity:0.3;"><rect x="570.634" y="127.611" width="80.802" height="30.092" transform="matrix(1,0,0,1,0,0)" fill="rgb(75,178,249)"/></g><g style="opacity:0.3;"><rect x="545" y="251.321" width="80.802" height="30.092" transform="matrix(1,0,0,1,0,0)" fill="rgb(75,178,249)"/></g><g style="opacity:0.3;"><rect x="667.038" y="248.534" width="80.802" height="30.092" transform="matrix(1,0,0,1,0,0)" fill="rgb(75,178,249)"/></g><path d=" M 823.626 14.856 L 770.13 65.616 L 829.198 108.107" fill="none"/><clipPath id="_clipPath_zKOxvGhr0Ib0vJjbTve0v3nRKZ6RuvTB"><path d=" M -2262 -1624.412 L 2262 -1624.412 L 2262 1624.412 L -2262 1624.412 L -2262 -1624.412 Z  M 823.626 14.856 L 770.13 65.616 L 829.198 108.107 L 823.626 14.856 Z " fill-rule="evenodd" fill="rgb(255,255,255)"/></clipPath><g clip-path="url(#_clipPath_zKOxvGhr0Ib0vJjbTve0v3nRKZ6RuvTB)"><mask id="_mask_j4CjXQ1eTqN2P6CC2ebt2lfysUzStrqy" x="-200%" y="-200%" width="400%" height="400%"><rect x="-200%" y="-200%" width="400%" height="400%" style="fill:white;"/><path d=" M 823.626 14.856 L 770.13 65.616 L 829.198 108.107" fill="black" stroke="none"/></mask><path d=" M 823.626 14.856 L 770.13 65.616 L 829.198 108.107" fill="none"/><path d=" M 823.626 14.856 L 770.13 65.616 L 829.198 108.107" fill="none" mask="url(#_mask_j4CjXQ1eTqN2P6CC2ebt2lfysUzStrqy)" vector-effect="non-scaling-stroke" stroke-width="2" stroke="rgb(63,61,86)" stroke-opacity="100" stroke-linejoin="miter" stroke-linecap="butt" stroke-miterlimit="10"/></g><clipPath id="_clipPath_IqVzmkzedourhhDvWdKbBv4mnspDNA1w"><path d=" M -2262 -1624.412 L 2262 -1624.412 L 2262 1624.412 L -2262 1624.412 L -2262 -1624.412 Z  M 689.328 65.616 L 611.034 127.611 L 689.328 65.616 Z " fill-rule="evenodd" fill="rgb(255,255,255)"/></clipPath><g clip-path="url(#_clipPath_IqVzmkzedourhhDvWdKbBv4mnspDNA1w)"><mask id="_mask_9roIQ9zY6cZsRiHBEWBT1bVjtmK67WN0" x="-200%" y="-200%" width="400%" height="400%"><rect x="-200%" y="-200%" width="400%" height="400%" style="fill:white;"/><line x1="689.328" y1="65.616" x2="611.034" y2="127.611" fill="black" stroke="none"/></mask><line x1="689.328" y1="65.616" x2="611.034" y2="127.611" mask="url(#_mask_9roIQ9zY6cZsRiHBEWBT1bVjtmK67WN0)" vector-effect="non-scaling-stroke" stroke-width="2" stroke="rgb(63,61,86)" stroke-opacity="100" stroke-linejoin="miter" stroke-linecap="butt" stroke-miterlimit="10"/></g><path d=" M 585.401 251.297 L 611.034 157.702 L 707.439 248.534" fill="none"/><clipPath id="_clipPath_X4MeJpNXziierMbCsxfxMUrxjFyHN8XI"><path d=" M -2262 -1624.412 L 2262 -1624.412 L 2262 1624.412 L -2262 1624.412 L -2262 -1624.412 Z  M 585.401 251.297 L 611.034 157.702 L 707.439 248.534 L 585.401 251.297 Z " fill-rule="evenodd" fill="rgb(255,255,255)"/></clipPath><g clip-path="url(#_clipPath_X4MeJpNXziierMbCsxfxMUrxjFyHN8XI)"><mask id="_mask_GyWa9jibKEgDJu59qsQsrszp8v3PZOHT" x="-200%" y="-200%" width="400%" height="400%"><rect x="-200%" y="-200%" width="400%" height="400%" style="fill:white;"/><path d=" M 585.401 251.297 L 611.034 157.702 L 707.439 248.534" fill="black" stroke="none"/></mask><path d=" M 585.401 251.297 L 611.034 157.702 L 707.439 248.534" fill="none"/><path d=" M 585.401 251.297 L 611.034 157.702 L 707.439 248.534" fill="none" mask="url(#_mask_GyWa9jibKEgDJu59qsQsrszp8v3PZOHT)" vector-effect="non-scaling-stroke" stroke-width="2" stroke="rgb(63,61,86)" stroke-opacity="100" stroke-linejoin="miter" stroke-linecap="butt" stroke-miterlimit="10"/></g><g style="opacity:0.3;"><rect x="144.328" y="82.267" width="80.802" height="30.092" transform="matrix(1,0,0,1,0,0)" fill="rgb(75,178,249)"/></g><g style="opacity:0.3;"><rect x="278.626" y="31" width="80.802" height="30.092" transform="matrix(1,0,0,1,0,0)" fill="rgb(75,178,249)"/></g><g style="opacity:0.3;"><rect x="284.198" y="124.061" width="80.802" height="30.092" transform="matrix(1,0,0,1,0,0)" fill="rgb(75,178,249)"/></g><g style="opacity:0.3;"><rect x="25.634" y="158.611" width="80.802" height="30.092" transform="matrix(1,0,0,1,0,0)" fill="rgb(75,178,249)"/></g><g style="opacity:0.3;"><rect x="0" y="282.321" width="80.802" height="30.092" transform="matrix(1,0,0,1,0,0)" fill="rgb(75,178,249)"/></g><g style="opacity:0.3;"><rect x="122.038" y="279.534" width="80.802" height="30.092" transform="matrix(1,0,0,1,0,0)" fill="rgb(75,178,249)"/></g><path d=" M 278.626 45.856 L 225.13 96.616 L 284.198 139.107" fill="none"/><clipPath id="_clipPath_VN7aZUv10JxXzAmwUDLuIXa3jmhNWiiu"><path d=" M -2262 -1624.412 L 2262 -1624.412 L 2262 1624.412 L -2262 1624.412 L -2262 -1624.412 Z  M 278.626 45.856 L 225.13 96.616 L 284.198 139.107 L 278.626 45.856 Z " fill-rule="evenodd" fill="rgb(255,255,255)"/></clipPath><g clip-path="url(#_clipPath_VN7aZUv10JxXzAmwUDLuIXa3jmhNWiiu)"><mask id="_mask_mTi3EgV14ptA9UtszFv8BEgPYNExaD2X" x="-200%" y="-200%" width="400%" height="400%"><rect x="-200%" y="-200%" width="400%" height="400%" style="fill:white;"/><path d=" M 278.626 45.856 L 225.13 96.616 L 284.198 139.107" fill="black" stroke="none"/></mask><path d=" M 278.626 45.856 L 225.13 96.616 L 284.198 139.107" fill="none"/><path d=" M 278.626 45.856 L 225.13 96.616 L 284.198 139.107" fill="none" mask="url(#_mask_mTi3EgV14ptA9UtszFv8BEgPYNExaD2X)" vector-effect="non-scaling-stroke" stroke-width="2" stroke="rgb(63,61,86)" stroke-opacity="100" stroke-linejoin="miter" stroke-linecap="butt" stroke-miterlimit="10"/></g><clipPath id="_clipPath_GUnAXM6j8If7QrYtXol4pM4ZXtUNyhlZ"><path d=" M -2262 -1624.412 L 2262 -1624.412 L 2262 1624.412 L -2262 1624.412 L -2262 -1624.412 Z  M 144.328 96.616 L 66.034 158.611 L 144.328 96.616 Z " fill-rule="evenodd" fill="rgb(255,255,255)"/></clipPath><g clip-path="url(#_clipPath_GUnAXM6j8If7QrYtXol4pM4ZXtUNyhlZ)"><mask id="_mask_6tBEgUOQTY3kjnn1E6TSMMlefL18CWap" x="-200%" y="-200%" width="400%" height="400%"><rect x="-200%" y="-200%" width="400%" height="400%" style="fill:white;"/><line x1="144.328" y1="96.616" x2="66.034" y2="158.611" fill="black" stroke="none"/></mask><line x1="144.328" y1="96.616" x2="66.034" y2="158.611" mask="url(#_mask_6tBEgUOQTY3kjnn1E6TSMMlefL18CWap)" vector-effect="non-scaling-stroke" stroke-width="2" stroke="rgb(63,61,86)" stroke-opacity="100" stroke-linejoin="miter" stroke-linecap="butt" stroke-miterlimit="10"/></g><path d=" M 40.401 282.297 L 66.034 188.702 L 162.439 279.534" fill="none"/><clipPath id="_clipPath_p4OJexYo2kD6iSczioTMdBzWeCGVSO8O"><path d=" M -2262 -1624.412 L 2262 -1624.412 L 2262 1624.412 L -2262 1624.412 L -2262 -1624.412 Z  M 40.401 282.297 L 66.034 188.702 L 162.439 279.534 L 40.401 282.297 Z " fill-rule="evenodd" fill="rgb(255,255,255)"/></clipPath><g clip-path="url(#_clipPath_p4OJexYo2kD6iSczioTMdBzWeCGVSO8O)"><mask id="_mask_zYPLClUQAxij8bmur3Sm9DpNo0ZKFXD7" x="-200%" y="-200%" width="400%" height="400%"><rect x="-200%" y="-200%" width="400%" height="400%" style="fill:white;"/><path d=" M 40.401 282.297 L 66.034 188.702 L 162.439 279.534" fill="black" stroke="none"/></mask><path d=" M 40.401 282.297 L 66.034 188.702 L 162.439 279.534" fill="none"/><path d=" M 40.401 282.297 L 66.034 188.702 L 162.439 279.534" fill="none" mask="url(#_mask_zYPLClUQAxij8bmur3Sm9DpNo0ZKFXD7)" vector-effect="non-scaling-stroke" stroke-width="2" stroke="rgb(63,61,86)" stroke-opacity="100" stroke-linejoin="miter" stroke-linecap="butt" stroke-miterlimit="10"/></g><clipPath id="_clipPath_BTKCJxAL86PXlwoPPszvcioi7DFwRZz5"><path d=" M -2262 -1624.412 L 2262 -1624.412 L 2262 1624.412 L -2262 1624.412 L -2262 -1624.412 Z  M 365 139.107 L 456.634 139.107 L 365 139.107 Z " fill-rule="evenodd" fill="rgb(255,255,255)"/></clipPath><g clip-path="url(#_clipPath_BTKCJxAL86PXlwoPPszvcioi7DFwRZz5)"><mask id="_mask_KRo41EHzvNUZ6KP6pEvkm2EOko0wSeM0" x="-200%" y="-200%" width="400%" height="400%"><rect x="-200%" y="-200%" width="400%" height="400%" style="fill:white;"/><line x1="365" y1="139.107" x2="456.634" y2="139.107" fill="black" stroke="none"/></mask><line x1="365" y1="139.107" x2="456.634" y2="139.107" mask="url(#_mask_KRo41EHzvNUZ6KP6pEvkm2EOko0wSeM0)" vector-effect="non-scaling-stroke" stroke-width="2" stroke="rgb(63,61,86)" stroke-opacity="100" stroke-linejoin="miter" stroke-linecap="butt" stroke-miterlimit="10"/></g><rect x="415.5" y="123.706" width="95" height="30" transform="matrix(1,0,0,1,0,0)" fill="rgb(75,178,249)"/><clipPath id="_clipPath_PzeXgFvxVz2DY9CEchW499SQk84Rvmo3"><path d=" M -2262 -1624.412 L 2262 -1624.412 L 2262 1624.412 L -2262 1624.412 L -2262 -1624.412 Z  M 510.623 138.706 L 570.634 138.706 L 510.623 138.706 Z " fill-rule="evenodd" fill="rgb(255,255,255)"/></clipPath><g clip-path="url(#_clipPath_PzeXgFvxVz2DY9CEchW499SQk84Rvmo3)"><mask id="_mask_kzTXzz0dTqxw3RMMzndwBcijGNjVrm3P" x="-200%" y="-200%" width="400%" height="400%"><rect x="-200%" y="-200%" width="400%" height="400%" style="fill:white;"/><line x1="510.623" y1="138.706" x2="570.634" y2="138.706" fill="black" stroke="none"/></mask><line x1="510.623" y1="138.706" x2="570.634" y2="138.706" mask="url(#_mask_kzTXzz0dTqxw3RMMzndwBcijGNjVrm3P)" vector-effect="non-scaling-stroke" stroke-width="2" stroke="rgb(63,61,86)" stroke-opacity="100" stroke-linejoin="miter" stroke-linecap="butt" stroke-miterlimit="10"/></g><clipPath id="_clipPath_EfLWlKK2ITVt5nVllZvhmaB4UlG4VjAg"><path d=" M -2262 -1624.412 L 2262 -1624.412 L 2262 1624.412 L -2262 1624.412 L -2262 -1624.412 Z  M 415.045 138.706 L 359.427 45.856 L 415.045 138.706 Z " fill-rule="evenodd" fill="rgb(255,255,255)"/></clipPath><g clip-path="url(#_clipPath_EfLWlKK2ITVt5nVllZvhmaB4UlG4VjAg)"><mask id="_mask_g0fyNfSsyMYq96ImlIItNKJpIJCX6gcf" x="-200%" y="-200%" width="400%" height="400%"><rect x="-200%" y="-200%" width="400%" height="400%" style="fill:white;"/><line x1="415.045" y1="138.706" x2="359.427" y2="45.856" fill="black" stroke="none"/></mask><line x1="415.045" y1="138.706" x2="359.427" y2="45.856" mask="url(#_mask_g0fyNfSsyMYq96ImlIItNKJpIJCX6gcf)" vector-effect="non-scaling-stroke" stroke-width="2" stroke="rgb(63,61,86)" stroke-opacity="100" stroke-linejoin="miter" stroke-linecap="butt" stroke-miterlimit="10"/></g><ellipse vector-effect="non-scaling-stroke" cx="691" cy="714.20611" rx="440" ry="98" fill="rgb(242,242,242)"/><path d=" M 894.984 391.611 L 852.078 606.582 L 842.79 606.582 L 841.768 604.994 L 838.809 600.39 L 875.964 399.572 L 881.604 397.21 L 894.984 391.611 L 894.984 391.611 Z " fill="rgb(71,70,90)"/><g style="opacity:0.1;"><g opacity="0.1"><path d=" M 881.604 397.21 L 841.768 604.994 L 838.809 600.39 L 875.964 399.572 L 881.604 397.21 L 881.604 397.21 Z " fill="rgb(0,0,0)"/></g></g><path d=" M 959.564 684.432 L 948.533 687.988 L 945.852 688.855 L 942.313 680.893 L 881.604 403.96 L 887.916 402.545 L 901.177 399.572 L 959.564 684.432 L 959.564 684.432 Z " fill="rgb(71,70,90)"/><g style="opacity:0.1;"><g opacity="0.1"><path d=" M 948.533 687.988 L 945.852 688.855 L 942.313 680.893 L 881.604 403.96 L 887.916 402.545 L 948.533 687.988 L 948.533 687.988 Z " fill="rgb(0,0,0)"/></g></g><path d=" M 433.636 391.611 L 423.905 670.277 L 412.753 672.754 L 411.962 672.931 L 408.865 667.181 L 415.058 394.264 L 421.016 393.415 L 433.636 391.611 L 433.636 391.611 Z " fill="rgb(71,70,90)"/><g style="opacity:0.1;"><g opacity="0.1"><path d=" M 421.016 393.415 L 412.753 672.754 L 411.962 672.931 L 408.865 667.181 L 415.058 394.264 L 421.016 393.415 L 421.016 393.415 Z " fill="rgb(0,0,0)"/></g></g><path d=" M 491.581 768.917 L 480.045 770.907 L 478.753 771.128 L 475.215 763.609 L 419.039 399.572 L 420.658 399.081 L 429.213 396.476 L 491.581 768.917 L 491.581 768.917 Z " fill="rgb(71,70,90)"/><g style="opacity:0.1;"><g opacity="0.1"><path d=" M 480.045 770.907 L 478.753 771.128 L 475.215 763.609 L 419.039 399.572 L 420.658 399.081 L 480.045 770.907 L 480.045 770.907 Z " fill="rgb(0,0,0)"/></g></g><path d=" M 735.746 369.052 L 778.697 423.934 C 781.691 427.759 786.461 429.748 791.286 429.183 L 967.604 408.533 C 974.621 407.712 979.911 401.766 979.911 394.7 L 979.911 354.013 L 735.746 369.052 Z " fill="rgb(122,121,156)"/><path d=" M 880.388 377.898 L 892.33 377.898 L 892.33 395.135 C 892.33 397.586 890.344 399.572 887.893 399.572 L 884.825 399.572 C 882.374 399.572 880.388 397.586 880.388 395.135 L 880.388 377.898 L 880.388 377.898 Z " fill="rgb(71,70,90)"/><path d=" M 419.039 403.996 L 461.99 458.878 C 464.984 462.703 469.754 464.692 474.579 464.127 L 650.897 443.477 C 657.914 442.656 663.204 436.709 663.204 429.644 L 663.204 388.957 L 419.039 403.996 Z " fill="rgb(122,121,156)"/><path d=" M 563.68 412.842 L 575.623 412.842 L 575.623 430.079 C 575.623 432.53 573.636 434.516 571.186 434.516 L 568.118 434.516 C 565.667 434.516 563.68 432.53 563.68 430.079 L 563.68 412.842 L 563.68 412.842 Z " fill="rgb(71,70,90)"/><path d=" M 468.385 431.791 L 992.844 370.701 C 996.228 370.307 998.952 367.74 999.546 364.386 C 1000.14 361.031 998.464 357.685 995.422 356.152 L 901.605 308.97 C 883.127 299.677 862.379 295.855 841.802 297.953 L 375.861 345.463 C 372.461 345.818 369.564 348.086 368.401 351.3 C 367.239 354.514 368.016 358.11 370.402 360.558 L 424.661 416.226 C 436.041 427.902 452.187 433.65 468.385 431.791 Z " fill="rgb(71,70,90)"/><path d=" M 1050.544 362.422 L 1044.934 359.321 C 1044.934 359.321 1038.877 363.779 1033.944 382.56 C 1033.944 382.56 1043.164 382.764 1043.164 382.764 L 1049.357 369.936 L 1050.544 362.422 Z " fill="rgb(71,70,90)"/><path d=" M 990.527 534.483 C 990.527 534.483 984.777 561.465 982.123 568.984 C 980.823 572.664 974.541 576.031 967.579 578.605 C 961.406 580.904 955.016 582.572 948.506 583.581 C 940.987 584.466 844.559 569.427 797.672 559.253 C 766.085 552.401 762.003 544.541 762.702 540.144 C 762.926 538.835 763.554 537.629 764.497 536.694 C 764.497 536.694 810.942 505.289 827.308 490.25 C 827.308 490.25 875.964 487.153 911.35 493.346 C 946.737 499.539 990.527 534.483 990.527 534.483 Z " fill="rgb(71,70,90)"/><path d=" M 1044.934 359.321 C 1044.934 359.321 1066.608 373.475 993.624 402.669 C 993.624 402.669 953.955 425.035 959.118 517.172 C 959.363 521.315 960.625 525.334 962.791 528.874 C 970.322 541.259 986.458 572.611 959.564 576.504 L 959.564 583.581 C 959.564 583.581 1008.22 559.253 1013.528 538.464 C 1013.528 538.464 1036.529 402.226 1045.376 391.611 C 1054.223 380.995 1059.973 364.186 1044.934 359.321 Z " fill="rgb(71,70,90)"/><g style="opacity:0.1;"><g opacity="0.1"><path d=" M 967.579 578.605 C 961.406 580.904 955.016 582.572 948.506 583.581 C 940.987 584.466 844.559 569.427 797.672 559.253 C 766.085 552.401 762.003 544.541 762.702 540.144 C 783.464 547.244 850.884 569.776 875.08 571.638 C 903.831 573.85 958.759 579.998 962.922 575.818 C 964.523 574.208 966.164 575.907 967.579 578.605 Z " fill="rgb(0,0,0)"/></g></g><path d=" M 714.957 762.724 L 756.978 570.754 C 756.978 570.754 764.497 550.406 781.748 551.291 L 797.672 559.253 C 797.672 559.253 771.132 553.06 765.382 573.408 C 759.632 593.755 722.919 762.724 722.919 762.724 L 714.957 762.724 Z " fill="rgb(71,70,90)"/><path d=" M 815.808 675.143 L 832.616 557.926 L 840.136 557.926 L 822.885 675.143 L 815.808 675.143 L 815.808 675.143 Z " fill="rgb(71,70,90)"/><path d=" M 976.815 789.706 L 960.891 606.582 C 960.891 606.582 960.891 591.101 968.853 583.581 C 968.853 583.581 1002.518 554.611 1002.518 554.611 C 1002.518 554.611 1009.105 553.06 1014.413 568.1 C 1014.413 568.1 1056.434 733.53 1056.434 733.53 L 1049.357 736.627 L 1003.797 563.234 L 972.392 592.87 C 972.392 592.87 966.199 603.928 969.296 614.102 C 969.296 614.102 983.892 789.706 983.892 789.706 L 976.815 789.706 Z " fill="rgb(71,70,90)"/><path d=" M 927.717 579.158 L 967.526 590.658 L 976.373 582.254 L 953.372 579.158 L 927.717 579.158 L 927.717 579.158 Z " fill="rgb(71,70,90)"/><path d=" M 573.813 256.304 L 580.268 353.128 L 721.37 339.416 L 715.756 244.766 C 715.604 242.205 714.425 239.814 712.485 238.135 C 710.546 236.455 708.011 235.629 705.455 235.844 L 582.513 246.185 C 577.338 246.62 573.467 251.123 573.813 256.304 L 573.813 256.304 Z " fill="rgb(122,121,156)"/><path d=" M 768.7 367.282 L 628.039 382.627 L 622.731 383.206 L 581.595 356.667 L 581.595 350.916 L 721.37 338.328 L 768.7 367.282 L 768.7 367.282 Z " fill="rgb(122,121,156)"/><g style="opacity:0.1;"><g opacity="0.1"><path d=" M 628.039 382.627 L 622.731 383.206 L 581.595 356.667 L 581.595 351.518 L 628.039 382.627 L 628.039 382.627 Z " fill="rgb(0,0,0)"/></g></g><path d=" M 583.364 255.373 L 588.23 341.627 L 712.082 330.127 L 707.658 246.084 L 583.364 255.373 L 583.364 255.373 Z " fill="rgb(148,147,182)"/><g style="opacity:0.1;"><g opacity="0.1"><path d=" M 657.233 365.513 L 672.272 375.687 L 717.832 371.263 L 702.35 361.532 L 657.233 365.513 L 657.233 365.513 Z " fill="rgb(0,0,0)"/></g></g><path d=" M 595.749 353.128 L 614.769 367.282 L 736.41 355.782 L 714.736 341.627 L 595.749 353.128 L 595.749 353.128 Z " fill="rgb(148,147,182)"/><path d=" M 836.021 265.083 C 836.021 265.083 848.688 299.389 836.021 305.722 C 836.021 305.722 881.411 305.722 881.411 305.722 L 897.772 292.527 C 897.772 292.527 860.827 281.972 866.105 257.694 C 871.383 233.416 836.021 265.083 836.021 265.083 Z " fill="rgb(251,190,190)"/><g style="opacity:0.1;"/><g opacity="0.1"><path d=" M 837.021 267.489 C 837.021 267.489 849.688 301.795 837.021 308.128 C 837.021 308.128 882.41 308.128 882.41 308.128 L 898.772 294.934 C 898.772 294.934 861.827 284.378 867.105 260.1 C 872.383 235.822 837.021 267.489 837.021 267.489 Z " fill="rgb(0,0,0)"/></g><path d=" M 738.556 608.089 C 738.556 608.089 786.056 675.117 778.139 693.59 C 778.139 693.59 774.445 723.673 758.611 730.007 C 758.611 730.007 738.556 747.952 752.278 747.424 C 752.278 747.424 783.945 743.201 786.584 738.451 C 786.584 738.451 795.556 711.007 804.529 707.84 C 813.501 704.673 830.39 692.534 818.251 677.756 C 806.112 662.978 775.526 608.546 777.888 603.039 C 780.251 597.533 738.556 608.089 738.556 608.089 Z " fill="rgb(251,190,190)"/><path d=" M 837.779 475.615 C 837.779 475.615 739.611 481.948 714.278 505.699 C 714.278 505.699 736.445 618.117 741.722 619.172 C 741.722 619.172 788.167 616.006 786.584 604.394 C 786.584 604.394 757.028 545.283 757.028 545.283 C 757.028 545.283 793.445 532.088 813.501 528.921 C 813.501 528.921 855.724 510.977 855.724 510.977 L 837.779 475.615 Z " fill="rgb(148,147,182)"/><path d=" M 792.917 460.837 C 792.917 460.837 794.501 519.421 809.279 521.532 C 809.279 521.532 809.279 476.671 809.279 476.671 L 808.751 458.726 L 792.917 460.837 Z " fill="rgb(251,190,190)"/><path d=" M 837.779 307.252 C 837.779 307.252 810.334 299.335 805.056 320.447 C 805.056 320.447 798.195 414.392 798.195 414.392 L 788.695 472.448 C 788.695 472.448 806.112 467.171 809.806 469.809 L 831.973 441.837 L 837.779 307.252 Z " fill="rgb(75,178,249)"/><g style="opacity:0.1;"/><g opacity="0.1"><path d=" M 837.779 307.252 C 837.779 307.252 810.334 299.335 805.056 320.447 C 805.056 320.447 798.195 414.392 798.195 414.392 L 788.695 472.448 C 788.695 472.448 806.112 467.171 809.806 469.809 L 831.973 441.837 L 837.779 307.252 Z " fill="rgb(59,59,59)"/></g><path d=" M 875.279 619.329 C 875.279 619.329 893.724 655.589 904.808 655.062 C 904.808 655.062 926.447 647.673 931.725 669.312 C 931.725 669.312 930.669 685.145 937.002 697.812 C 937.002 697.812 944.391 732.646 932.252 737.924 C 932.252 737.924 909.03 743.729 908.502 737.924 C 908.502 737.924 919.058 732.118 906.391 711.534 C 906.391 711.534 866.807 653.478 855.724 649.784 C 844.64 646.089 875.279 619.329 875.279 619.329 Z " fill="rgb(251,190,190)"/><path d=" M 923.28 453.976 C 923.28 453.976 953.359 516.01 928.553 534.483 C 928.553 534.483 837.779 589.616 837.779 589.616 C 837.779 589.616 877.363 616.533 879.474 625.506 C 879.474 625.506 860.474 658.756 853.085 659.284 C 853.085 659.284 824.057 635.006 800.834 628.672 C 800.834 628.672 763.362 576.95 788.695 560.061 C 788.695 560.061 837.779 515.199 837.779 515.199 L 830.394 474.565 L 923.28 453.976 Z " fill="rgb(148,147,182)"/><path d=" M 881.604 221.107 C 881.604 247.358 861.451 269.059 841.777 269.059 C 822.104 269.059 806.155 247.778 806.155 221.527 C 806.155 195.276 822.104 173.996 841.777 173.996 C 861.451 173.996 881.604 194.856 881.604 221.107 Z " fill="rgb(251,190,190)"/><path d=" M 852.726 301.963 C 852.726 301.963 895.407 285.907 895.407 283.766 C 895.407 283.766 920.15 288.583 925.717 292.864 C 925.717 292.864 934.377 296.611 938.088 305.174 C 938.088 305.174 919.531 393.485 919.531 393.485 C 919.531 393.485 931.903 455.035 938.707 460.922 C 945.511 466.81 883.654 475.373 883.654 475.373 C 883.654 475.373 842.829 481.796 836.024 484.472 C 829.22 487.148 816.849 490.894 819.323 484.472 C 821.797 478.049 832.313 473.232 814.375 465.204 C 814.375 465.204 820.56 438.978 814.375 427.204 C 826.074 415.976 814.356 368.943 819.323 337.323 C 842.21 306.281 836.024 299.287 836.024 299.287 C 836.024 299.287 844.066 305.174 852.726 301.963 Z " fill="rgb(75,178,249)"/><path d=" M 866.807 445.531 C 866.807 445.531 825.64 463.79 813.237 465.48 C 800.834 467.171 763.361 476.671 783.945 485.115 C 804.529 493.56 835.668 480.893 835.668 480.893 L 879.474 462.42 L 866.807 445.531 Z " fill="rgb(251,190,190)"/><g style="opacity:0.1;"/><g opacity="0.1"><path d=" M 911.129 299.827 C 911.129 299.827 926.331 292.474 930.553 318.335 C 930.553 318.335 949.554 426.003 930.553 438.142 C 930.553 438.142 867.747 469.809 867.747 469.809 C 867.747 469.809 841.886 452.393 854.025 446.059 C 854.025 446.059 895.192 421.781 899.414 415.448 C 899.414 415.448 907.902 338.421 900.513 326.809 C 893.124 315.198 911.129 299.827 911.129 299.827 Z " fill="rgb(0,0,0)"/></g><path d=" M 924.72 293.862 C 924.72 293.862 951.507 292.808 956.865 318.621 C 956.865 318.621 980.973 426.086 956.865 438.202 C 956.865 438.202 877.173 469.809 877.173 469.809 C 877.173 469.809 844.359 452.425 859.762 446.104 C 859.762 446.104 911.996 421.871 917.354 415.55 C 922.711 409.229 913.336 343.38 903.96 331.79 C 894.585 320.201 924.72 293.862 924.72 293.862 Z " fill="rgb(75,178,249)"/><g><path d=" M 864.77 193.704 C 863.944 193.689 863.125 193.636 862.298 193.545 C 860.73 193.371 859.353 192.191 857.94 192.146 C 855.397 192.063 852.989 193.228 850.064 193.349 C 848.129 193.447 846.342 192.887 844.738 191.435 C 836.375 189.99 829.481 190.005 824.021 191.435 C 823.216 186.843 821.238 183.469 819.211 182.486 C 820.433 185.792 821.337 188.757 820.871 191.344 C 818.434 190.686 816.308 191.571 814.712 195.096 C 812.042 196.284 808.411 209.272 808.439 219.575 C 809.118 220.967 809.054 217.412 808.439 219.575 L 807.013 214.84 L 806.73 216.065 L 803.869 209.953 C 800.338 202.646 799.561 196.45 802.16 191.639 C 800.535 190.247 799.645 188.666 799.568 186.881 C 799.412 183.061 802.683 179.604 805.416 177.599 C 807.055 176.396 810.58 175.965 810.332 174.135 C 808.934 174.286 807.783 174.044 807.013 173.197 C 803.311 169.134 810.573 167.402 813.214 167.107 C 817.897 166.585 822.969 167.841 829.736 167.841 C 826.939 165.632 822.849 164.437 819.303 164.543 C 822.044 161.63 826.282 159.482 830.675 158.279 C 829.778 157.75 827.094 157.523 823.661 157.999 C 829.142 154.436 832.95 155.692 840.726 158.476 L 835.994 151.94 C 838.607 153.196 841.051 154.24 843.347 155.094 C 852.063 158.347 862.185 157.054 870.28 159.293 C 883.722 163.007 890.919 182.834 876.248 190.913 C 872.618 192.918 868.832 193.772 864.77 193.704 L 864.77 193.704 Z " fill-rule="evenodd" fill="rgb(0,0,0)"/><path d=" M 873.882 195.913 C 873.417 195.424 873.226 194.888 873.325 194.59 C 874.656 193.855 875.894 193.428 877.037 193.321 C 879.776 193.065 881.969 194.642 883.574 198.196 C 886.064 203.19 884.108 203.974 883.355 207.6 C 882.494 211.73 881.785 217.114 881.226 222.364 C 881.105 219.957 882.064 211.61 882.462 215.866 C 881.446 214.556 882.094 227.084 881.226 222.364 C 880.699 217.118 880.552 213.12 878.805 208.094 C 878.125 206.145 877.367 204.871 876.834 203.417 C 875.458 199.709 876.272 198.409 873.882 195.913 L 873.882 195.913 Z " fill-rule="evenodd" fill="rgb(0,0,0)"/></g></g></g></g></svg>